<svg xmlns="http://www.w3.org/2000/svg" width="1400" height="760" viewBox="0 0 1400 760" role="img" aria-labelledby="title desc">
  <title id="title">Face2Scene Placeholder</title>
  <desc id="desc">Placeholder teaser image for the Face2Scene project page.</desc>
  <defs>
    <linearGradient id="bg" x1="0" y1="0" x2="1" y2="1">
      <stop offset="0%" stop-color="#0f766e"/>
      <stop offset="100%" stop-color="#155e75"/>
    </linearGradient>
    <linearGradient id="card" x1="0" y1="0" x2="1" y2="0">
      <stop offset="0%" stop-color="#e8fbfa" stop-opacity="0.95"/>
      <stop offset="100%" stop-color="#dff3ff" stop-opacity="0.92"/>
    </linearGradient>
  </defs>

  <rect width="1400" height="760" fill="url(#bg)"/>

  <circle cx="180" cy="620" r="250" fill="#ffffff" opacity="0.08"/>
  <circle cx="1220" cy="130" r="220" fill="#ffffff" opacity="0.09"/>

  <rect x="110" y="110" width="1180" height="540" rx="24" fill="url(#card)" opacity="0.96"/>
  <rect x="180" y="180" width="380" height="380" rx="20" fill="#0f766e" opacity="0.18"/>
  <rect x="610" y="180" width="620" height="80" rx="12" fill="#0f766e" opacity="0.14"/>
  <rect x="610" y="292" width="520" height="26" rx="8" fill="#0f766e" opacity="0.15"/>
  <rect x="610" y="336" width="560" height="26" rx="8" fill="#0f766e" opacity="0.15"/>
  <rect x="610" y="380" width="480" height="26" rx="8" fill="#0f766e" opacity="0.15"/>
  <rect x="610" y="444" width="240" height="52" rx="10" fill="#155e75" opacity="0.85"/>
  <rect x="870" y="444" width="240" height="52" rx="10" fill="#0f766e" opacity="0.85"/>

  <text x="700" y="710" text-anchor="middle" font-family="Manrope, sans-serif" font-size="40" font-weight="800" fill="#e6fffb">
    Replace with Face2Scene teaser figure
  </text>
</svg>
